# xmcd
# 
# Track frame offsets:
#     150
#     12119
#     27339
#     42324
#     46871
#     65563
#     66987
#     84284
#     97533
#     107380
#     122578
#     135121
#     141562
#     151372
#     154079
#     163404
# 
# Disc length: 2305
# 
# Revision: 9
# Processed by: cddbd v1.5.2PL0 Copyright (c) Steve Scherf et al.
# Submitted via: fre:ac v1.0.31
# 
DISCID=c508ff10
DTITLE=Original Soundtrack - Death Proof
DYEAR=2007
DGENRE=Soundtrack
TTITLE0=Jack Nitzsche - The Last Race
TTITLE1=Smith - Baby It's You
TTITLE2=Ennio Morricone - Paranoia Prima
TTITLE3=Eli Roth and Michael Bacall - Planning and Scheming
TTITLE4=T. Rex - Jeepster
TTITLE5=Rose McGowan and Kurt Russell - Stuntman Mike
TTITLE6=Pacific Gas and Electric - Staggolee
TTITLE7=Joe Tex - The Love You Save (May Be Your Own)
TTITLE8=Eddie Floyd - Good Love, Bad Love
TTITLE9=The Coasters - Down In Mexico
TTITLE10=Dave Dee, Dozy, Beaky, Mick and Tich - Hold Tight!
TTITLE11=Sally and Jack - Pino Donaggio
TTITLE12=Willy DeVille - It's So Easy
TTITLE13=Tracie Thomas and Zoe Bell - Whatever-However
TTITLE14=Eddie Beram - Riot In Thunder Alley
TTITLE15=April March - Chick Habit
EXTD=YEAR: 2007
EXTT0=
EXTT1=
EXTT2=
EXTT3=
EXTT4=
EXTT5=
EXTT6=
EXTT7=
EXTT8=
EXTT9=
EXTT10=
EXTT11=
EXTT12=
EXTT13=
EXTT14=
EXTT15=
PLAYORDER=
